<svg version="1.1" xmlns="http://www.w3.org/2000/svg" xmlns:xlink="http://www.w3.org/1999/xlink" viewBox="0 0 226 226"><g fill="none" fill-rule="nonzero" stroke="none" stroke-width="1" stroke-linecap="butt" stroke-linejoin="miter" stroke-miterlimit="10" stroke-dasharray="" stroke-dashoffset="0" font-family="none" font-weight="none" font-size="none" text-anchor="none" style="mix-blend-mode: normal"><path d="M0,226v-226h226v226z" fill="none"></path><g fill="#2ecc71"><path d="M218.9375,113h-17.31796c16.72091,-23.78407 12.47661,-56.40547 -9.77359,-75.11908c-22.2502,-18.71362 -55.11634,-17.30409 -75.68266,3.24578l-3.16329,3.16223l-3.16223,-3.16223c-20.55896,-20.58532 -53.4519,-22.01324 -75.71742,-3.28697c-22.26552,18.72627 -26.4967,51.37716 -9.73989,75.16027h-17.31796c-1.95026,0 -3.53125,1.58099 -3.53125,3.53125c0,1.95026 1.58099,3.53125 3.53125,3.53125h23.2155c0.09428,0.09534 0.17374,0.19987 0.26873,0.29486l79.95668,79.891c1.37952,1.37717 3.61367,1.37717 4.99319,0l79.95809,-79.891c0.09499,-0.09499 0.17444,-0.19952 0.26873,-0.29486h23.21408c1.95026,0 3.53125,-1.58099 3.53125,-3.53125c0,-1.95026 -1.58099,-3.53125 -3.53125,-3.53125zM32.10542,49.93753c8.74714,-10.7794 21.64993,-17.3505 35.51237,-18.08565c0.85527,-0.04496 1.70936,-0.06733 2.56227,-0.06709c12.99714,0.00461 25.46241,5.16143 34.66416,14.34041l5.65918,5.65565c1.38008,1.37581 3.61311,1.37581 4.99319,0l5.66059,-5.65742c18.67007,-18.69949 48.81015,-19.20994 68.10272,-1.15339c19.29258,18.05655 20.77596,48.16442 3.35177,68.02997h-38.44013l-9.67562,-22.57881c-0.55443,-1.2934 -1.82388,-2.13415 -3.23109,-2.13994h-0.01483c-1.40293,-0.00066 -2.67295,0.82998 -3.23462,2.11557l-20.70725,47.3357l-18.55742,-68.03695c-0.40192,-1.4719 -1.70373,-2.5192 -3.22756,-2.59653c-1.53397,-0.10971 -2.95396,0.81348 -3.47616,2.26l-16.78368,43.64095h-41.87498c-15.78942,-17.87953 -16.3321,-44.55558 -1.2829,-63.06247zM113,192.75823l-72.75434,-72.69572h37.44184c1.46153,0.00033 2.77223,-0.89973 3.29677,-2.26388l13.78706,-35.85066l18.35297,67.29397c0.39362,1.44447 1.65534,2.48373 3.14846,2.59335c0.08616,0.00494 0.17233,0.00848 0.25849,0.00848c1.40269,-0.00017 2.67229,-0.83054 3.23462,-2.11557l21.44881,-49.02893l7.38349,17.22332c0.55562,1.29897 1.83276,2.14104 3.24557,2.13994h33.91059z"></path></g></g></svg>